<svg xmlns="http://www.w3.org/2000/svg" xmlns:xlink="http://www.w3.org/1999/xlink" viewBox="0 0 400 400" xmlns:v="https://vecta.io/nano"><style><![CDATA[.B{fill:#fff}.C{word-spacing:0px}.D{stroke-width:2.978}.E{stroke-width:2.957}]]></style><defs><filter id="A"><feGaussianBlur stdDeviation="6.105"/></filter><filter id="B"><feGaussianBlur stdDeviation="5.094"/></filter><filter id="C"><feGaussianBlur stdDeviation="1.489"/></filter><filter id="D"><feGaussianBlur stdDeviation="4.81"/></filter><filter id="E"><feGaussianBlur stdDeviation="1.727"/></filter><filter id="F"><feGaussianBlur stdDeviation="1.701"/></filter><linearGradient id="G" gradientUnits="userSpaceOnUse"><stop stop-color="#4c4c4c" offset="0"/><stop offset=".023"/><stop offset=".341"/><stop stop-color="#4d4d4d" offset=".403"/><stop offset=".449"/><stop offset=".956"/><stop stop-color="#a3a3a3" offset="1"/></linearGradient><linearGradient id="H" x1="-2661.5" x2="-2978.3" y1="-376.68" y2="749.03" gradientUnits="userSpaceOnUse"><stop stop-color="#af9d9d" offset="0"/><stop stop-color="#dedada" offset=".5"/><stop stop-color="#bbb9b9" offset=".75"/><stop stop-color="#e6e6e6" offset=".875"/><stop stop-color="#999" offset="1"/></linearGradient><linearGradient id="I" x1="177.19" x2="251.4" y1="938.49" y2="732.53" gradientUnits="userSpaceOnUse"><stop stop-color="#af9d9d" offset="0"/><stop stop-color="#dedada" offset=".5"/><stop stop-color="#bbb9b9" offset=".63"/><stop stop-color="#e6e6e6" offset=".875"/><stop stop-color="#999" offset="1"/></linearGradient><linearGradient id="J" x1="40.083" x2="379.3" y1="819.69" y2="824.98" xlink:href="#G"/><linearGradient id="K" x1="227.86" x2="375.18" y1="779.7" y2="781.9" xlink:href="#G"/><path id="L" d="M360.271 803.988c0 1.321-.951 2.542-2.495 3.202s-3.446.66-4.99 0-2.495-1.881-2.495-3.202.951-2.542 2.495-3.202 3.446-.66 4.99 0 2.495 1.881 2.495 3.202z"/><path id="M" d="M64.713 850.528c0 1.391-1.001 2.676-2.626 3.371s-3.628.695-5.253 0-2.626-1.981-2.626-3.371 1.001-2.676 2.626-3.371 3.628-.695 5.253 0 2.626 1.981 2.626 3.371z"/><path id="N" d="M-940.6-494.34h-.997l-.396-1.031h-1.813l-.374 1.031h-.972l1.767-4.537h.969zm-1.687-1.795l-.625-1.684-.613 1.684z"/><path id="O" d="m-18.539 50.362h140.14v57.394h-140.14z"/><path id="P" d="M-5.522 59.84H8.521v14.043H-5.522z"/><path id="Q" d="M18.478 59.84h14.043v14.043H18.478z"/><path id="R" d="M42.478 59.84h14.043v14.043H42.478z"/><path id="S" d="M66.478 59.84h14.043v14.043H66.478z"/><path id="T" d="M90.478 59.84h14.043v14.043H90.478z"/><path id="U" d="m-1213.5 87.84h14.043v14.043h-14.043z"/><path id="V" d="M-832.016-574.173h-.74v-2.795h.687v.397c.118-.188.223-.311.317-.371s.2-.09.32-.09a.94.94 0 0 1 .487.139l-.229.645c-.125-.081-.24-.121-.347-.121a.41.41 0 0 0-.263.086c-.072.057-.129.16-.17.309s-.062.461-.062.937z"/><path id="W" d="M-830.8-575.61a1.51 1.51 0 0 1 .182-.713c.121-.23.293-.405.515-.526s.47-.182.743-.182c.423 0 .769.137 1.04.412s.405.622.405 1.041-.136.773-.409 1.051-.616.417-1.03.417c-.256 0-.5-.058-.733-.174a1.19 1.19 0 0 1-.53-.509c-.121-.224-.182-.496-.182-.817zm.758.039c0 .277.066.49.197.637s.294.221.487.221.355-.074.486-.221.196-.361.196-.642c0-.274-.065-.484-.196-.632s-.293-.221-.486-.221-.355.074-.487.221-.197.36-.197.637z"/><path id="X" d="M-889.28-571.61v-2.903h.877l.527 1.98.521-1.98h.879v2.903h-.545v-2.285l-.576 2.285h-.564l-.574-2.285v2.285z"/><path id="Y" d="M-880.38-573.16v-.556h.556v.556zm0 1.547v-.556h.556v.556z"/><path id="Z" d="M-875.75-571.609v-2.903h1.234c.31 0 .536.026.676.078s.253.145.338.278.127.286.127.457c0 .218-.064.398-.192.54s-.319.231-.574.268c.127.074.231.155.314.244s.194.246.334.471l.354.566h-.701l-.424-.632-.309-.427a.45.45 0 0 0-.176-.121c-.062-.022-.16-.033-.295-.033h-.119v1.212zm.586-1.675h.434c.281 0 .457-.012.527-.036s.125-.065.164-.123.059-.131.059-.218c0-.098-.026-.177-.078-.237s-.126-.098-.221-.114c-.048-.007-.19-.01-.428-.01h-.457z"/><path id="a" d="M-866.363-574.524c.281 0 .501.1.659.301.189.238.283.632.283 1.182s-.095.944-.285 1.184c-.157.198-.376.297-.657.297a.83.83 0 0 1-.683-.326c-.173-.217-.259-.604-.259-1.161 0-.547.095-.94.285-1.18.157-.198.376-.297.657-.297zm0 .461c-.067 0-.127.021-.18.064s-.094.12-.123.231c-.038.144-.057.386-.057.727s.017.575.052.702.078.212.13.254.112.063.179.063.127-.021.18-.064.094-.12.123-.231c.038-.143.057-.384.057-.725s-.017-.575-.052-.702-.078-.213-.13-.255-.112-.064-.179-.064z"/><path id="b" d="M-862.809-572.38l.539-.065a.51.51 0 0 0 .139.315.38.38 0 0 0 .273.109c.107 0 .212-.044.29-.131s.118-.205.118-.352c0-.14-.038-.251-.113-.333a.36.36 0 0 0-.275-.123.97.97 0 0 0-.255.042l.061-.453c.15.004.265-.029.345-.098s.119-.161.119-.276c0-.098-.029-.176-.087-.234s-.135-.087-.232-.087-.176.033-.244.099-.108.162-.123.289l-.513-.087c.036-.176.089-.316.161-.421a.73.73 0 0 1 .301-.248 1.01 1.01 0 0 1 .433-.09c.273 0 .492.087.657.261.136.143.204.304.204.483 0 .255-.139.458-.418.61.166.036.299.116.399.24s.15.274.15.45a.87.87 0 0 1-.279.652.96.96 0 0 1-.695.269c-.263 0-.481-.076-.653-.227a.89.89 0 0 1-.301-.593z"/><path id="c" d="M-859.44-571.61v-.584h-1.188v-.487l1.259-1.844h.467v1.842h.36v.489h-.36v.584zm0-1.073v-.992l-.667.992z"/><path id="d" d="M-856.395-572.126v.517h-1.951c.021-.195.085-.381.19-.555s.314-.407.626-.696c.251-.234.405-.392.461-.475.077-.115.115-.228.115-.341 0-.124-.033-.219-.1-.286s-.159-.1-.276-.1-.209.035-.277.105-.108.186-.119.349l-.554-.055c.033-.306.137-.526.311-.659s.392-.2.653-.2c.286 0 .512.077.675.232a.76.76 0 0 1 .246.576c0 .131-.023.255-.07.373a1.52 1.52 0 0 1-.223.371c-.067.086-.189.209-.364.37l-.334.321a.96.96 0 0 0-.114.154z"/><path id="e" d="M-883.72-566.54h-.638l-.253-.659h-1.16l-.24.659h-.622l1.131-2.903h.62zm-1.079-1.149l-.4-1.077-.392 1.077z"/><path id="f" d="M-854.592-566.54h-.556v-2.097a1.92 1.92 0 0 1-.719.422v-.505c.145-.048.303-.138.473-.27s.287-.287.351-.464h.452z"/><path id="g" d="M-868.717-590.263h1.862c.42 0 .74.032.96.096.296.087.55.242.761.465s.372.495.482.818.165.72.165 1.193c0 .415-.052.773-.155 1.074-.126.367-.306.664-.54.892-.177.172-.415.306-.716.403-.225.071-.526.107-.902.107h-1.917zm1.019.854v3.343h.761c.285 0 .49-.016.616-.048a.94.94 0 0 0 .411-.21c.109-.099.198-.261.267-.487s.103-.534.103-.924-.034-.69-.103-.898-.165-.372-.289-.489a.97.97 0 0 0-.472-.238c-.142-.032-.421-.048-.837-.048z"/><path id="h" d="M-850.376-586.115v.898h-3.391c.037-.34.147-.662.33-.966s.546-.707 1.088-1.21c.436-.406.703-.682.802-.826.133-.2.2-.397.2-.592 0-.216-.058-.382-.174-.497s-.276-.174-.48-.174a.64.64 0 0 0-.482.182c-.119.122-.188.324-.207.606l-.964-.096c.057-.532.238-.915.54-1.146s.682-.348 1.136-.348c.498 0 .889.134 1.174.403a1.32 1.32 0 0 1 .427 1.002c0 .227-.041.443-.122.649a2.64 2.64 0 0 1-.387.645c-.117.149-.328.364-.633.644l-.58.558a1.67 1.67 0 0 0-.198.269z"/><path id="i" d="M-843.9-585.22v-1.015h-2.065v-.847l2.189-3.205h.812v3.201h.627v.85h-.627v1.015zm0-1.866v-1.725l-1.16 1.725z"/><path id="j" d="M-840.234-590.283c.489 0 .871.174 1.146.523.328.413.492 1.098.492 2.055s-.165 1.641-.496 2.059c-.273.344-.654.516-1.143.516s-.887-.189-1.188-.566-.451-1.051-.451-2.019c0-.95.165-1.634.496-2.052.273-.344.654-.516 1.143-.516zm0 .802c-.117 0-.221.037-.313.112s-.163.208-.213.401c-.067.25-.1.671-.1 1.263s.03.999.09 1.22.135.369.225.442a.48.48 0 0 0 .312.11c.117 0 .221-.037.313-.112s.163-.208.213-.401c.067-.248.1-.668.1-1.26s-.03-.999-.09-1.22-.135-.369-.225-.444-.194-.112-.312-.112z"/></defs><g transform="translate(0 -652.36)"><path d="M236.23 724.82l134.53 80.699c1.696.958 1.736 1.67 1.741 4.731l.045 29.612-135.27-83.568z" fill="url(#K)"/><path d="M235.84 721.71L37.43 850.08l.007.964-.268-.179.317 9.568-.557 18.063c-.08 4.294-.353 3.438 2.746 5.433 40.203 25.884 83.252 56.395 125.65 85.353 4.377 4.054 12.345 3.518 16.164.946l190.07-130.83-.534-30.409c-.453-1.396.31-1.481-2.235-2.203l-195.35 134.86-111.22-74.135 174.23-111.68z" fill="url(#J)"/><path transform="matrix(.22027 0 0 .22027 863.02 742.07)" d="M-2859-97.658l596.28 362.84c2.274 1.589 2.133 2.198 1.508 3.519-22.155 17.187-13.76 21.888 6.766 41.115.234 4.06.031 3.77-2.763 6.363l-840.15 577.12c-3.863.72-4.406-.066-6.592-1.567-23.626-16.22-35.305-10.687-55.556 1.344-2.581 1.533-7.347 1.675-10.401-.804l-534.78-357.65.446-78.048z" filter="url(#A)"/><path d="M238.12 722.54l127.37 77.503c.501.35.47.484.332.775-4.88 3.786-3.031 4.821 1.49 9.056.051.894.007.83-.609 1.402l-185.06 127.12c-.851.159-.97-.014-1.452-.345-5.204-3.573-7.777-2.354-12.237.296-.569.338-1.618.369-2.291-.177l-117.8-78.779.098-17.192 181.29-118.88c4.11-3.237 4.688-3.328 8.865-.786z" fill="url(#I)"/><g transform="matrix(.22027 0 0 .22027 863.02 742.07)"><path d="M-3484.4 352.83c34.589-48.441 112.16-81.45 112.16-81.45 48.067-29.296 132.3-38.516 154.85-58.428 14.044-12.402-.522-24.875-.259-35.13.447-17.463 13.522-15.723 18.851-21.238l230.68-152.68c2.949-1.414 2.793-1.277 4.628-1.318 18.884-.428 65.495-5.315 86.588-12.594s19.139-13.685 41.942-8.842L-2648 88.739c-4.162 42.705 16.103 65.402 91.852 60.238l158.79 94.954c14.807 7.991 18.717 11.069 19.639 18.103.892 6.805-9.26 23.725-9.102 30.446.311 13.18 9.963 22.462 19.899 27.08 8.55 3.974 19.1 15.088-2.318 33.791l-214.3 150.87c-35.507 17.746-37.202 13.996-89.149 11.267s-50.178 60.088-81.369 99.122c0 0-17.336 27.202-38.146 38.048-81.73 42.596-239.61 145.1-259.41 159.05-16.508 12.716-27.181 11.945-36.958 9.164-71.26-20.268-83.265 22.332-112.3 8.608-8.155-3.855-2.921-1.523-25.511-16.138-90.732-54.571-182.51-103.35-267.1-191.84-94.877-145.52-25.507-220.23 9.082-268.67z" fill="#999" filter="url(#B)"/><path d="M-3459.1 340.42c35.187-47.09 111.65-79.178 111.65-79.178 47.671-28.479 129.85-37.442 152.41-56.798 14.052-12.056.295-24.181.881-34.15.998-16.976 13.652-15.284 19.01-20.646l229.17-148.42c2.912-1.375 2.756-1.241 4.541-1.282 18.371-.416 63.839-5.167 84.579-12.242s19.046-13.304 41.057-8.596l178.28 104.59c-5.423 41.514 13.546 63.578 87.348 58.558l151.3 92.305c14.137 7.768 17.838 10.761 18.508 17.598.648 6.615-9.767 23.063-9.829 29.597-.123 12.813 8.961 21.835 18.471 26.324 8.183 3.863 18.08 14.667-3.343 32.848l-213.19 146.66c-35.089 17.252-36.616 13.605-87.026 10.953s-50.716 58.412-82.295 96.358c0 0-17.729 26.444-38.308 36.987-80.824 41.408-237.61 141.05-257.3 154.61-16.457 12.362-26.808 11.612-36.223 8.908-68.619-19.702-81.663 21.709-109.44 8.368-7.803-3.748-2.79-1.481-24.28-15.688-86.442-53.049-174.09-100.46-253.47-186.49-87.539-141.46-17.695-214.08 17.491-261.17z" fill="#333" filter="url(#C)"/><path d="M-3443 330.02c34.092-45.624 108.18-76.714 108.18-76.714 46.188-27.593 125.81-36.276 147.67-55.031 13.615-11.681.286-23.428.853-33.087.967-16.447 13.227-14.809 18.419-20.003l222.04-143.8c2.822-1.332 2.67-1.203 4.4-1.242 17.8-.403 61.853-5.006 81.946-11.861s18.454-12.89 39.779-8.328l172.73 101.33c-5.254 40.222 13.124 61.6 84.63 56.735l146.59 89.433c13.697 7.526 17.282 10.426 17.932 17.05.628 6.409-9.463 22.345-9.524 28.676-.119 12.414 8.682 21.156 17.896 25.505 7.928 3.743 17.518 14.21-3.238 31.826l-206.55 142.09c-33.997 16.715-35.476 13.182-84.317 10.612s-49.138 56.594-79.734 93.359c0 0-17.178 25.621-37.116 35.836-78.309 40.119-230.22 136.66-249.29 149.8-15.945 11.977-25.973 11.25-35.096 8.631-66.483-19.089-79.122 21.034-106.03 8.108-7.56-3.631-2.703-1.435-23.524-15.2-83.752-51.398-168.67-97.336-245.58-180.68-84.815-137.06-17.145-207.42 16.947-253.05z" fill="url(#H)" filter="url(#D)"/><path d="M-3431.9 398.43l398.87-264.99c13.815-9.178 31.014-7.028 43.215.826l125.78 80.969 1.389 97.805 182.16 109.42c8.822 5.299 8.528 11.297 5.15 15.641-138.07 100.53-288.9 204.62-429.29 302.74-13.595 9.501-31.131 7.208-43.215-.826l-287.43-191.09 3.365-150.49z" fill="#1a1a1a" filter="url(#E)" stroke="#b3b3b3" stroke-width="1.04"/></g><path transform="matrix(.20985 0 0 .22027 -96.6 538.67)" d="m1819.3 1200.6a105.71 65.357 0 1 1 -211.43 0 105.71 65.357 0 1 1 211.43 0z" fill="#b3b3b3" filter="url(#F)"/><g fill="#1a1a1a"><use xlink:href="#L"/><use xlink:href="#L" x="-81.77" y="60.06"/><path d="M238.091 726.41c0 1.152-.83 2.217-2.176 2.793a5.7 5.7 0 0 1-4.352 0c-1.347-.576-2.176-1.641-2.176-2.793s.83-2.217 2.176-2.793a5.7 5.7 0 0 1 4.352 0c1.347.576 2.176 1.641 2.176 2.793zm-87.622 58.415c0 1.223-.881 2.353-2.31 2.964a6.05 6.05 0 0 1-4.62 0c-1.429-.611-2.31-1.741-2.31-2.964s.881-2.353 2.31-2.964a6.05 6.05 0 0 1 4.62 0c1.429.611 2.31 1.741 2.31 2.964z"/><use xlink:href="#M"/><use xlink:href="#M" x="113.398" y="77.56"/></g><path d="M45.734 851.831c0 .802-.577 1.543-1.515 1.944s-2.092.401-3.03 0-1.515-1.142-1.515-1.944.577-1.543 1.515-1.944 2.092-.401 3.03 0 1.515 1.142 1.515 1.944z" fill="#b3b3b3"/><path d="M107.5 828.96l87.86-58.37c3.043-2.022 6.832-1.548 9.519.182l27.706 17.835.306 21.544 40.125 24.102c1.943 1.167 1.878 2.488 1.134 3.445-30.413 22.144-63.635 45.072-94.56 66.685-2.995 2.093-6.857 1.588-9.519-.182l-63.312-42.092.741-33.148z" stroke="#b3b3b3" stroke-width=".229" class="B"/><path d="M107.09 843.71l-.337 18.393 37.556 24.966 17.553-11.468-54.772-31.891z" fill="#f5ea4f"/><path d="M283.946 802.369c0 5.032-4.08 9.682-10.703 12.198s-14.783 2.516-21.406 0-10.703-7.166-10.703-12.198 4.08-9.682 10.703-12.198 14.783-2.516 21.406 0 10.703 7.166 10.703 12.198z" class="B"/><g transform="matrix(-.63322 -.40803 .2058 -.1527 -1482.7 91.775)"><path d="M-2275 910h1v38h-1zm2 0h1v38h-1zm2 0h4v30h-4zm5 0h1v30h-1zm3 0h1v30h-1zm3 0h2v30h-2zm3 0h1v30h-1zm4 0h2v30h-2zm3 0h2v30h-2zm5 0h1v30h-1zm2 0h1v38h-1zm2 0h1v38h-1zm2 0h1v30h-1zm2 0h1v30h-1zm5 0h1v30h-1zm4 0h1v30h-1zm3 0h1v38h-1zm2 0h1v38h-1zm-44.395 38.299l.791-.105c.091.448.245.771.464.969s.484.297.798.297a1.28 1.28 0 0 0 .943-.387c.257-.258.385-.577.385-.958 0-.363-.119-.663-.356-.899a1.23 1.23 0 0 0-.905-.354 2.27 2.27 0 0 0-.558.088l.088-.694.128.009a1.63 1.63 0 0 0 .91-.264c.27-.176.404-.447.404-.813a.96.96 0 0 0-.294-.721c-.196-.19-.45-.286-.76-.286s-.564.097-.769.29-.337.483-.396.87l-.791-.141c.097-.53.316-.941.659-1.233s.769-.437 1.279-.437c.352 0 .675.076.971.226s.522.357.679.617.235.538.235.831a1.36 1.36 0 0 1-.224.76c-.149.229-.371.41-.664.545.381.088.677.27.888.547s.316.623.316 1.039a1.9 1.9 0 0 1-.615 1.43c-.41.391-.929.587-1.556.587-.565 0-1.035-.168-1.408-.505s-.587-.773-.639-1.31zm9.162.941v.76h-4.258a1.33 1.33 0 0 1 .092-.549c.108-.29.282-.576.521-.857s.584-.606 1.035-.976c.7-.574 1.173-1.029 1.419-1.365s.369-.653.369-.951c0-.313-.112-.578-.336-.793s-.516-.323-.877-.323c-.381 0-.686.114-.914.343s-.344.545-.347.949l-.813-.083c.056-.606.265-1.069.628-1.386s.851-.477 1.463-.477c.618 0 1.107.171 1.468.514s.541.768.541 1.274a1.94 1.94 0 0 1-.158.76c-.105.249-.28.511-.525.787s-.651.653-1.22 1.134l-.914.811a2.6 2.6 0 0 0-.334.428zm3.433.76v-1.543h-2.795v-.725l2.94-4.175h.646v4.175h.87v.725h-.87V950zm0-2.268v-2.905l-2.017 2.905zm2.429.581l.831-.07c.061.404.204.708.428.912a1.16 1.16 0 0 0 .811.305 1.26 1.26 0 0 0 .967-.431c.264-.287.396-.668.396-1.143 0-.451-.127-.807-.38-1.068s-.585-.391-.995-.391a1.38 1.38 0 0 0-.69.174 1.34 1.34 0 0 0-.483.45l-.743-.097.624-3.309h3.204v.756h-2.571l-.347 1.731c.387-.27.793-.404 1.217-.404a1.93 1.93 0 0 1 1.424.584c.387.389.58.891.58 1.503 0 .583-.17 1.087-.51 1.512-.413.521-.977.782-1.692.782-.586 0-1.064-.164-1.435-.492s-.582-.763-.635-1.305z"/><path d="M-2235.768 945.135l-.787.062c-.07-.311-.17-.536-.299-.677-.214-.226-.478-.338-.791-.338-.252 0-.473.07-.664.211-.249.182-.445.447-.589.795s-.218.845-.224 1.49a1.83 1.83 0 0 1 .699-.646 1.88 1.88 0 0 1 .866-.211c.527 0 .976.194 1.347.582s.556.89.556 1.505c0 .404-.087.78-.262 1.127s-.414.613-.718.798-.65.277-1.037.277c-.659 0-1.197-.242-1.613-.727s-.624-1.284-.624-2.397c0-1.245.23-2.15.69-2.716.401-.492.942-.738 1.622-.738.507 0 .922.142 1.246.426s.518.677.582 1.178zm-3.23 2.777a1.84 1.84 0 0 0 .173.782c.115.249.278.439.486.569s.426.196.655.196c.334 0 .621-.135.861-.404s.36-.636.36-1.099c0-.445-.119-.796-.356-1.052a1.17 1.17 0 0 0-.896-.385c-.36 0-.661.128-.91.385s-.374.593-.374 1.009zm4.188-3.511v-.76h4.171v.615c-.41.437-.817 1.017-1.22 1.74a10.6 10.6 0 0 0-.934 2.232 8.31 8.31 0 0 0-.303 1.771h-.813c.01-.507.108-1.119.299-1.837s.464-1.41.82-2.076.735-1.228 1.136-1.685z"/></g><path d="M-709.44-608.99v-8.021h1.62v3.157h3.173v-3.157h1.62v8.021h-1.62v-3.507h-3.173v3.507zm8.09-8.019h2.96c.668 0 1.176.051 1.527.153a2.68 2.68 0 0 1 1.209.739 3.5 3.5 0 0 1 .766 1.299c.175.512.263 1.144.263 1.896 0 .66-.082 1.229-.246 1.707-.201.584-.487 1.056-.859 1.417-.281.274-.66.487-1.138.64-.357.113-.835.17-1.434.17h-3.048zm1.62 1.357v5.313h1.209c.452 0 .779-.025.979-.077.263-.066.481-.177.654-.334s.315-.415.424-.774.164-.849.164-1.469-.055-1.096-.164-1.428-.263-.591-.46-.777a1.54 1.54 0 0 0-.75-.378c-.226-.051-.669-.077-1.33-.077zm6.478-1.357h2.96c.668 0 1.176.051 1.527.153a2.68 2.68 0 0 1 1.209.739 3.5 3.5 0 0 1 .766 1.299c.175.512.263 1.144.263 1.896 0 .66-.082 1.229-.246 1.707-.201.584-.487 1.056-.859 1.417-.281.274-.66.487-1.138.64-.357.113-.835.17-1.433.17h-3.048zm1.62 1.357v5.313h1.209c.452 0 .779-.025.979-.077.263-.066.481-.177.654-.334s.315-.415.424-.774.164-.849.164-1.469-.055-1.096-.164-1.428-.263-.591-.46-.777a1.54 1.54 0 0 0-.75-.378c-.226-.051-.669-.077-1.33-.077z" transform="matrix(-.94257 -.62128 .73563 -.57605 0 0)" letter-spacing="0" class="C"/><g transform="matrix(-.65604 -.44672 .98725 -.85205 0 0)" letter-spacing="0" class="C"><path d="M-970.496-494.341h-.87v-3.277c-.318.297-.692.517-1.123.659v-.789c.227-.074.473-.215.74-.422s.449-.449.548-.726h.706zm4.249-3.426l-.842.093c-.021-.173-.074-.301-.161-.384a.47.47 0 0 0-.337-.124c-.184 0-.339.082-.466.248s-.207.509-.24 1.031c.217-.256.486-.384.808-.384a1.23 1.23 0 0 1 .933.415c.259.277.388.633.388 1.071 0 .464-.136.837-.409 1.117a1.4 1.4 0 0 1-1.049.421 1.4 1.4 0 0 1-1.13-.534c-.295-.356-.443-.939-.443-1.75 0-.831.154-1.431.461-1.798s.707-.551 1.198-.551c.345 0 .63.096.856.289s.37.473.432.84zm-1.971 1.897c0 .283.065.501.195.655s.279.231.446.231c.161 0 .295-.063.402-.189s.161-.332.161-.619c0-.295-.058-.511-.173-.648s-.26-.206-.433-.206-.308.065-.424.197-.173.324-.173.58zm4.023-3.027c.439 0 .783.157 1.031.47.295.371.443.987.443 1.848s-.149 1.475-.446 1.851c-.246.309-.588.464-1.027.464a1.3 1.3 0 0 1-1.068-.509c-.27-.339-.405-.944-.405-1.815 0-.854.149-1.469.446-1.844.246-.309.588-.464 1.027-.464zm0 .721c-.105 0-.199.034-.282.101s-.146.187-.192.361c-.06.225-.09.603-.09 1.136s.027.898.081 1.097.121.332.203.398.175.099.28.099.199-.034.282-.101.146-.187.192-.361c.06-.223.09-.6.09-1.133s-.027-.898-.081-1.097-.121-.332-.203-.399a.43.43 0 0 0-.28-.101zm6.118 2.167v-.764h1.974v1.807c-.192.186-.47.349-.834.491a3.02 3.02 0 0 1-1.106.212c-.475 0-.888-.099-1.241-.299a1.9 1.9 0 0 1-.795-.854 2.76 2.76 0 0 1-.266-1.209c0-.472.099-.892.297-1.26a2 2 0 0 1 .87-.845c.291-.151.653-.226 1.086-.226.563 0 1.003.118 1.32.354a1.6 1.6 0 0 1 .611.979l-.91.17a.96.96 0 0 0-.361-.528c-.176-.129-.397-.193-.661-.193-.4 0-.719.127-.955.381s-.354.63-.354 1.13c0 .538.12.942.359 1.212s.553.404.941.404c.192 0 .384-.038.577-.113a1.98 1.98 0 0 0 .497-.274v-.576zm2.82-2.869h1.814a5.22 5.22 0 0 1 .803.045 1.18 1.18 0 0 1 .473.187c.139.095.255.221.348.379s.139.335.139.531c0 .213-.057.407-.172.585a1.06 1.06 0 0 1-.466.399c.276.08.489.218.638.412a1.09 1.09 0 0 1 .223.684 1.35 1.35 0 0 1-.144.602 1.21 1.21 0 0 1-.393.467c-.166.116-.371.188-.614.215-.153.017-.521.027-1.105.031h-1.544zm.916.755v1.049h.6l.665-.015c.157-.019.28-.073.37-.162a.48.48 0 0 0 .135-.354.5.5 0 0 0-.116-.342c-.077-.088-.192-.141-.345-.159-.091-.01-.352-.015-.783-.015zm0 1.804v1.213h.848l.628-.028a.57.57 0 0 0 .333-.181c.086-.096.128-.224.128-.385 0-.136-.033-.252-.099-.347a.56.56 0 0 0-.286-.207c-.125-.043-.396-.065-.812-.065zm5.187.501l.891-.087c.054.299.162.519.327.659s.385.21.664.21c.295 0 .517-.062.667-.187s.224-.271.224-.438c0-.107-.032-.199-.094-.274s-.173-.141-.33-.197c-.107-.037-.352-.103-.733-.198-.491-.122-.836-.271-1.034-.449a1.18 1.18 0 0 1-.418-.913c0-.231.066-.447.197-.648a1.23 1.23 0 0 1 .566-.46c.247-.105.544-.158.893-.158.569 0 .998.125 1.286.374s.439.583.453 1l-.916.04c-.039-.233-.123-.401-.252-.503s-.322-.153-.58-.153c-.266 0-.475.055-.625.164a.33.33 0 0 0-.145.282c0 .107.045.199.136.275.116.097.396.198.842.303s.775.214.989.327a1.27 1.27 0 0 1 .501.461c.12.195.181.436.181.723a1.33 1.33 0 0 1-.217.73 1.3 1.3 0 0 1-.613.506c-.264.11-.593.166-.987.166-.574 0-1.014-.133-1.321-.398s-.491-.651-.551-1.159z"/><use xlink:href="#N"/><path d="M-939.09-494.34v-3.769h-1.346v-.767h3.605v.767h-1.343v3.769z"/><use xlink:href="#N" x="8.46"/></g><g stroke="#000"><g transform="matrix(-.1082 -.07269 .11597 -.08991 161.73 823.95)"><use xlink:href="#O" class="B D"/><g class="E"><use xlink:href="#P"/><use xlink:href="#P" y="25"/><use xlink:href="#Q"/><use xlink:href="#Q" y="25"/><use xlink:href="#R"/><use xlink:href="#R" y="25"/><use xlink:href="#S"/><use xlink:href="#S" y="25"/><use xlink:href="#T"/><use xlink:href="#T" y="25"/></g><use xlink:href="#O" y="75.998" class="B D"/><g class="E"><use xlink:href="#P" y="76"/><use xlink:href="#P" y="101"/><use xlink:href="#Q" y="76"/><use xlink:href="#Q" y="101"/><path d="M42.478 135.84h14.043v33.043H42.478z"/><use xlink:href="#R" y="101"/><use xlink:href="#S" y="76"/><use xlink:href="#S" y="101"/><use xlink:href="#T" y="76"/><use xlink:href="#T" y="101"/></g><use xlink:href="#O" y="155.998" class="B D"/><g class="E"><use xlink:href="#P" y="156"/><use xlink:href="#P" y="181"/><use xlink:href="#Q" y="156"/><use xlink:href="#Q" y="181"/><use xlink:href="#R" y="156"/><use xlink:href="#R" y="181"/><path d="M66.478 215.84h14.043v30.043H66.478z"/><use xlink:href="#S" y="181"/><use xlink:href="#T" y="156"/><use xlink:href="#T" y="181"/></g></g><g transform="matrix(-.1082 -.07269 .11597 -.08991 96.81 764.89)"><use xlink:href="#O" x="-1207.961" y="28" class="B D"/><g class="E"><use xlink:href="#U"/><use xlink:href="#U" y="25"/><use xlink:href="#U" x="24"/><use xlink:href="#U" x="24" y="25"/><use xlink:href="#U" x="48"/><use xlink:href="#U" x="48" y="25"/><use xlink:href="#U" x="72"/><use xlink:href="#U" x="72" y="25"/><use xlink:href="#U" x="96"/><use xlink:href="#U" x="96" y="25"/></g></g></g><g transform="matrix(-.80299 -.53941 .86064 -.66721 0 0)" letter-spacing="0" class="C"><path d="M-836.319-574.173v-3.858h1.25c.474 0 .783.019.926.058a1.01 1.01 0 0 1 .555.378c.149.194.224.444.224.751 0 .237-.043.436-.129.597s-.195.288-.328.38a1.13 1.13 0 0 1-.404.183 4.45 4.45 0 0 1-.808.055h-.508v1.455zm.779-3.206v1.095h.426c.307 0 .512-.02.616-.061a.51.51 0 0 0 .243-.189.52.52 0 0 0 .088-.3c0-.14-.041-.256-.124-.347a.54.54 0 0 0-.313-.171c-.093-.018-.28-.026-.561-.026z"/><use xlink:href="#V"/><use xlink:href="#W"/><path d="M-824.771-574.173h-.687v-.411a1.11 1.11 0 0 1-.404.357c-.155.078-.312.117-.47.117-.321 0-.596-.129-.825-.388s-.343-.62-.343-1.083c0-.474.111-.834.334-1.08a1.09 1.09 0 0 1 .845-.37c.312 0 .582.13.811.39v-1.39h.74zm-1.974-1.458c0 .298.041.514.124.647.119.193.286.289.5.289.17 0 .315-.072.434-.217s.179-.361.179-.649c0-.321-.058-.552-.174-.693a.55.55 0 0 0-.445-.212.55.55 0 0 0-.441.209c-.119.139-.178.348-.178.625zm4.545 1.458v-.418c-.102.149-.236.267-.401.353s-.341.129-.525.129a1.03 1.03 0 0 1-.505-.124.73.73 0 0 1-.324-.347c-.067-.149-.1-.355-.1-.618v-1.769h.74v1.284c0 .393.014.634.041.722s.077.159.149.211.163.078.274.078a.58.58 0 0 0 .34-.104.53.53 0 0 0 .205-.258c.037-.103.055-.354.055-.754v-1.179h.74v2.795zm3.893-1.969l-.729.132a.53.53 0 0 0-.167-.329c-.087-.074-.2-.111-.338-.111-.184 0-.331.064-.441.191s-.164.34-.164.638c0 .332.056.566.167.703s.261.205.449.205a.5.5 0 0 0 .345-.12c.09-.08.153-.217.189-.412l.726.124c-.076.333-.22.585-.434.755s-.501.255-.861.255c-.409 0-.735-.129-.978-.387s-.365-.615-.365-1.071.122-.821.366-1.078.574-.386.99-.386c.34 0 .611.073.812.22s.345.37.433.67z"/><path d="M-816.462-576.968v.59h-.505v1.126l.014.399c.01.038.032.069.066.093s.076.037.125.037c.068 0 .168-.024.297-.071l.063.574a1.47 1.47 0 0 1-.584.111c-.133 0-.254-.022-.361-.067s-.186-.103-.236-.174-.085-.167-.104-.288c-.016-.086-.024-.26-.024-.521v-1.219h-.34v-.59h.34v-.555l.742-.432v.987z"/><use xlink:href="#W" x="16.18"/><path d="M-811.478-576.968h.411v-.211c0-.235.025-.411.075-.526s.142-.21.276-.283a1.06 1.06 0 0 1 .509-.109c.205 0 .417.032.618.095l-.1.516a1.46 1.46 0 0 0-.34-.042c-.109 0-.184.025-.23.075s-.07.146-.07.288v.197h.553v.582h-.553v2.213h-.74v-2.213h-.411zm4.168 2.798l-.921-3.858h.797l.582 2.65.705-2.65h.926l.676 2.695.592-2.695h.784l-.937 3.858h-.826l-.769-2.885-.766 2.885z"/><use xlink:href="#W" x="27.855"/><use xlink:href="#V" x="33.245"/><path d="M-797.38-574.17v-3.858h.74v3.858zm4.054-.003h-.687v-.411a1.11 1.11 0 0 1-.404.357c-.155.078-.312.117-.47.117-.321 0-.596-.129-.825-.388s-.343-.62-.343-1.083c0-.474.111-.834.334-1.08a1.09 1.09 0 0 1 .845-.37c.312 0 .583.13.811.39v-1.39h.74zm-1.974-1.458c0 .298.041.514.124.647.119.193.286.289.5.289.17 0 .315-.072.434-.217s.179-.361.179-.649c0-.321-.058-.552-.174-.693a.55.55 0 0 0-.445-.212.55.55 0 0 0-.441.209c-.119.139-.178.348-.178.625z"/></g><path transform="matrix(-.8301 -.55762 .79032 -.61269 0 0)" d="m-862.76-629.06h44.858v21.05h-44.858z" stroke="#000" stroke-width=".412" class="B"/><g transform="matrix(-.80299 -.53941 .86064 -.66721 0 0)" class="C"><g fill="#666" letter-spacing="0"><use xlink:href="#X"/><path d="M-885.893-574.512h1.071a2.09 2.09 0 0 1 .553.056.97.97 0 0 1 .438.267 1.27 1.27 0 0 1 .277.47 2.15 2.15 0 0 1 .095.686 1.92 1.92 0 0 1-.089.618 1.28 1.28 0 0 1-.311.513 1.03 1.03 0 0 1-.412.232 1.77 1.77 0 0 1-.519.061h-1.103zm.586.491v1.923h.438c.164 0 .282-.009.354-.028a.54.54 0 0 0 .237-.121c.063-.057.114-.15.153-.28s.059-.307.059-.532-.02-.397-.059-.517a.66.66 0 0 0-.166-.281c-.071-.067-.162-.113-.271-.137-.082-.019-.242-.028-.481-.028zm2.367 2.411v-2.879h.586v2.39h1.457v.489z"/><use xlink:href="#Y"/><use xlink:href="#Z"/><use xlink:href="#X" x="16.45"/><path d="M-867.682-572.126v.517h-1.951c.021-.195.085-.381.19-.555s.314-.407.626-.696c.251-.234.405-.392.461-.475.077-.115.115-.228.115-.341 0-.124-.033-.219-.1-.286s-.159-.1-.276-.1-.209.035-.277.105-.108.186-.119.349l-.554-.055c.033-.306.137-.526.311-.659s.392-.2.653-.2c.286 0 .512.077.675.232a.76.76 0 0 1 .246.576c0 .131-.023.255-.07.373a1.52 1.52 0 0 1-.223.371c-.067.086-.189.209-.364.37l-.334.321c-.047.053-.085.104-.114.154z"/><use xlink:href="#a"/><use xlink:href="#a" x="2.257"/><use xlink:href="#b"/><use xlink:href="#c"/><use xlink:href="#d"/><path d="M-855.96-572.38v-.556h1.093v.556z"/><use xlink:href="#b" x="8.127"/><use xlink:href="#c" x="8.13"/><path d="M-850.139-572.356l.554-.057c.016.125.063.225.141.298a.38.38 0 0 0 .269.11c.116 0 .215-.047.295-.142s.121-.237.121-.427c0-.178-.04-.312-.12-.401a.4.4 0 0 0-.312-.134c-.16 0-.303.071-.43.212l-.452-.065.285-1.511h1.471v.521h-1.05l-.087.493a.84.84 0 0 1 .38-.093c.247 0 .456.09.628.269s.257.413.257.699a1.05 1.05 0 0 1-.208.64.92.92 0 0 1-.786.384c-.268 0-.486-.072-.655-.216s-.27-.337-.303-.58zm-39.136 2.913h1.071a2.09 2.09 0 0 1 .553.056.97.97 0 0 1 .438.267 1.27 1.27 0 0 1 .277.47 2.15 2.15 0 0 1 .095.686 1.92 1.92 0 0 1-.089.618 1.28 1.28 0 0 1-.311.513 1.03 1.03 0 0 1-.412.232 1.77 1.77 0 0 1-.519.061h-1.103zm.586.491v1.923h.438c.164 0 .282-.009.354-.028a.54.54 0 0 0 .237-.121c.063-.057.114-.15.153-.28s.059-.307.059-.532-.02-.397-.059-.517a.66.66 0 0 0-.166-.281c-.071-.067-.162-.113-.271-.137-.082-.019-.242-.028-.481-.028z"/><use xlink:href="#e"/><path d="M-882.76-566.54v-2.412h-.861v-.491h2.307v.491h-.859v2.412zm1.83 0v-2.903h2.153v.491h-1.566v.644h1.457v.489h-1.457v.79h1.622v.489z"/><use xlink:href="#Y" x="2.26" y="5.07"/><use xlink:href="#a" x="-8.563" y="5.069"/><use xlink:href="#d" x="-15.335" y="5.069"/><use xlink:href="#e" x="16.23"/><path d="M-867.173-566.54v-2.903h.941c.356 0 .589.014.697.044a.76.76 0 0 1 .418.284c.112.146.168.334.168.565 0 .178-.032.328-.097.45s-.147.217-.247.286a.85.85 0 0 1-.304.138c-.14.028-.343.042-.608.042h-.382v1.095zm.586-2.412v.824h.321c.231 0 .385-.015.463-.046s.139-.078.183-.143a.39.39 0 0 0 .066-.226c0-.106-.031-.193-.093-.261s-.141-.112-.236-.129c-.07-.013-.211-.02-.422-.02z"/><use xlink:href="#Z" x="11.288" y="5.069"/><use xlink:href="#d" x="-2.257" y="5.069"/><use xlink:href="#a" x="9.03" y="5.069"/><use xlink:href="#f"/><use xlink:href="#f" x="2.257"/><path d="M-889.275-564.373h1.071c.242 0 .426.019.553.055a.97.97 0 0 1 .438.267 1.27 1.27 0 0 1 .277.47 2.15 2.15 0 0 1 .095.686 1.92 1.92 0 0 1-.089.618 1.28 1.28 0 0 1-.311.513 1.03 1.03 0 0 1-.412.232 1.77 1.77 0 0 1-.519.061h-1.103zm.586.491v1.923h.438c.164 0 .282-.009.354-.028a.54.54 0 0 0 .237-.121c.063-.057.114-.15.153-.28s.059-.307.059-.532-.02-.397-.059-.517a.66.66 0 0 0-.166-.281c-.071-.067-.162-.113-.271-.137-.082-.019-.242-.028-.481-.028zm4.204 1.344l.568.18c-.087.317-.232.552-.435.706s-.46.231-.771.231c-.385 0-.702-.132-.951-.395s-.372-.623-.372-1.08c0-.483.125-.858.374-1.126s.578-.401.984-.401c.355 0 .644.105.865.315.132.124.231.302.297.535l-.58.139c-.034-.15-.106-.269-.215-.356s-.241-.131-.397-.131a.66.66 0 0 0-.524.232c-.134.154-.201.405-.201.751 0 .367.066.628.198.784s.304.234.515.234a.58.58 0 0 0 .402-.149c.112-.1.193-.255.242-.467z"/><use xlink:href="#X" x="5.86" y="10.14"/><use xlink:href="#Y" x="0.45" y="10.14"/><use xlink:href="#Z" x="0.452" y="10.139"/><use xlink:href="#b" x="-9.703" y="10.139"/><use xlink:href="#c" x="-9.703" y="10.14"/><path d="M-867.965-562.142l.539-.059c.013.11.048.191.103.244s.129.079.22.079c.115 0 .213-.053.293-.158s.132-.325.154-.657c-.14.162-.315.244-.525.244-.228 0-.425-.088-.591-.264s-.249-.406-.249-.688c0-.294.087-.532.262-.712a.89.89 0 0 1 .668-.27.9.9 0 0 1 .725.342c.189.228.283.602.283 1.124 0 .531-.098.914-.295 1.149s-.453.352-.768.352c-.227 0-.411-.06-.551-.181s-.23-.301-.269-.542zm1.259-1.216c0-.18-.041-.319-.124-.418s-.178-.149-.286-.149a.32.32 0 0 0-.256.122c-.068.081-.102.214-.102.399s.037.325.111.413.166.132.277.132.197-.042.27-.127.11-.209.11-.372z"/><use xlink:href="#a" x="1.584" y="10.139"/><use xlink:href="#b" x="-0.673" y="10.139"/><use xlink:href="#b" x="1.585" y="10.139"/><use xlink:href="#X" x="30.45" y="10.14"/></g><g fill="gray" letter-spacing="0"><path d="M-890.135-586.858l.991-.096c.06.333.181.577.363.733s.429.234.738.234c.328 0 .575-.069.742-.208s.25-.301.25-.487a.46.46 0 0 0-.105-.305c-.07-.084-.192-.157-.367-.219a12.55 12.55 0 0 0-.816-.22c-.546-.135-.929-.302-1.15-.499-.31-.278-.465-.616-.465-1.016 0-.257.073-.497.219-.721a1.37 1.37 0 0 1 .63-.511c.274-.117.605-.176.993-.176.633 0 1.11.139 1.43.417s.488.648.504 1.112l-1.019.045c-.044-.259-.137-.446-.281-.559s-.359-.17-.645-.17c-.296 0-.528.061-.695.182-.108.078-.162.182-.162.313a.39.39 0 0 0 .151.306c.129.108.441.22.936.337s.862.238 1.1.363a1.42 1.42 0 0 1 .558.513c.135.217.201.485.201.804a1.48 1.48 0 0 1-.241.812 1.45 1.45 0 0 1-.682.563c-.294.123-.66.184-1.098.184-.638 0-1.128-.147-1.47-.442s-.546-.725-.613-1.289zm4.445 1.728l1.25-5.219h.726l-1.263 5.219zm2.49-.09v-5.047h.991l2.065 3.37v-3.37h.947v5.047h-1.022l-2.034-3.291v3.291zm5.26-2.68v-.967h.967v.967zm0 2.688v-.967h.967v.967zm4.14-.008v-5.047h1.019v1.986h1.997v-1.986h1.019v5.047h-1.019v-2.207h-1.997v2.207z"/><use xlink:href="#g"/><use xlink:href="#g" x="5.095"/><path d="M-858.52-585.216v-5.047h2.145c.539 0 .931.045 1.176.136a1.16 1.16 0 0 1 .587.484c.147.232.22.497.22.795 0 .379-.111.691-.334.938s-.555.402-.998.466c.22.129.402.27.546.423s.337.427.58.819l.616.985h-1.219l-.737-1.098-.537-.742c-.096-.102-.199-.172-.306-.21s-.279-.057-.513-.057h-.207v2.107zm1.019-2.912h.754c.489 0 .794-.021.916-.062a.55.55 0 0 0 .286-.213c.069-.101.103-.227.103-.379 0-.17-.045-.307-.136-.411s-.219-.17-.384-.198c-.083-.011-.33-.017-.744-.017h-.795z"/><use xlink:href="#h"/><path d="M-849.753-586.555l.936-.114c.03.239.11.421.241.547a.66.66 0 0 0 .475.189.65.65 0 0 0 .504-.227c.137-.152.205-.356.205-.613 0-.243-.065-.436-.196-.578s-.29-.213-.479-.213c-.124 0-.272.024-.444.072l.107-.788c.262.007.461-.05.599-.17s.207-.281.207-.48c0-.17-.051-.305-.151-.406s-.235-.151-.403-.151a.58.58 0 0 0-.423.172c-.117.115-.188.282-.213.503l-.892-.151c.062-.305.155-.549.281-.732s.299-.326.523-.43.474-.157.752-.157c.475 0 .856.151 1.143.454.236.248.355.528.355.84 0 .443-.242.796-.726 1.06.289.062.52.201.694.417s.26.476.26.781c0 .443-.162.82-.485 1.133s-.726.468-1.208.468c-.457 0-.835-.131-1.136-.394s-.475-.606-.523-1.031z"/><use xlink:href="#i"/><use xlink:href="#j"/><use xlink:href="#j" x="3.924"/><use xlink:href="#h" x="19.622"/><path d="M-830.131-586.555l.936-.114c.03.239.11.421.241.547a.66.66 0 0 0 .475.189.65.65 0 0 0 .504-.227c.137-.152.205-.356.205-.613 0-.243-.065-.436-.196-.578s-.29-.213-.478-.213c-.124 0-.272.024-.444.072l.107-.788c.262.007.461-.05.599-.17s.207-.281.207-.48c0-.17-.051-.305-.151-.406s-.235-.151-.403-.151a.58.58 0 0 0-.423.172c-.117.115-.188.282-.213.503l-.892-.151c.062-.305.155-.549.281-.732s.299-.326.523-.43.474-.157.752-.157c.475 0 .856.151 1.143.454.236.248.355.528.355.84 0 .443-.242.796-.726 1.06.289.062.52.201.694.417s.26.476.26.781a1.52 1.52 0 0 1-.485 1.133c-.323.313-.726.468-1.208.468-.457 0-.835-.131-1.136-.394s-.475-.606-.523-1.031zm3.979.172l.936-.103c.023.19.083.332.179.423a.53.53 0 0 0 .382.138c.2 0 .369-.092.509-.275s.229-.565.269-1.143c-.243.282-.547.423-.912.423-.397 0-.74-.153-1.028-.46s-.432-.705-.432-1.196c0-.512.152-.924.456-1.238s.691-.47 1.162-.47a1.56 1.56 0 0 1 1.26.594c.328.396.492 1.047.492 1.954 0 .923-.171 1.588-.513 1.997s-.787.613-1.336.613c-.395 0-.714-.105-.957-.315s-.399-.524-.468-.942zm2.189-2.114c0-.312-.072-.554-.215-.726s-.309-.258-.497-.258c-.179 0-.328.071-.446.212s-.177.372-.177.694.064.565.193.718.289.229.482.229.343-.073.47-.22.191-.363.191-.647z"/><use xlink:href="#i" x="23.55"/><path d="M-817.494-587.939c-.25-.106-.432-.251-.546-.435a1.14 1.14 0 0 1-.17-.608 1.22 1.22 0 0 1 .394-.933c.263-.246.636-.368 1.12-.368s.852.123 1.117.368.398.557.398.933a1.1 1.1 0 0 1-.182.625c-.122.182-.293.322-.513.418.28.112.493.277.639.492s.219.465.219.747c0 .466-.149.845-.446 1.136s-.692.437-1.186.437c-.459 0-.841-.12-1.146-.361-.36-.285-.54-.675-.54-1.17 0-.273.068-.524.203-.752s.349-.404.64-.528zm.2-.974c0 .193.054.343.164.451s.254.162.435.162.33-.054.441-.164.165-.26.165-.453c0-.181-.054-.326-.164-.435s-.253-.164-.432-.164a.6.6 0 0 0-.444.165.59.59 0 0 0-.165.437zm-.09 2.162c0 .266.068.474.205.623s.307.224.511.224.365-.072.496-.215.196-.351.196-.621c0-.236-.067-.426-.2-.57a.66.66 0 0 0-.506-.215c-.236 0-.413.082-.528.244s-.174.34-.174.53z"/></g></g></g></svg>